<svg xmlns="http://www.w3.org/2000/svg" fill="#2A645D" width="25" height="25" id="network">
    <path
        style="text-indent:0;text-align:start;line-height:normal;text-transform:none;block-progression:tb;marker:none;-inkscape-font-specification:Sans"
        d="M12.5 0C5.602 0 0 5.602 0 12.5S5.602 25 12.5 25 25 19.398 25 12.5 19.398 0 12.5 0zm0 .969A11.519 11.519 0 0 1 24.031 12.5 11.519 11.519 0 0 1 12.5 24.031 11.519 11.519 0 0 1 .969 12.5 11.519 11.519 0 0 1 12.5.969zM7.25 5.875c-2.334 3.161-2.334 7.12 0 10.281l.813-.593c-2.102-2.846-2.102-6.249 0-9.094l-.813-.594zm10.5 0-.813.594c2.102 2.845 2.102 6.248 0 9.093l.813.594c2.334-3.16 2.334-7.12 0-10.281zM8.969 7.469c-1.949 1.948-1.949 5.145 0 7.093l.687-.718a3.992 3.992 0 0 1 0-5.656l-.687-.72zm7.062 0-.687.718a3.992 3.992 0 0 1 0 5.657l.687.719c1.949-1.949 1.949-5.146 0-7.094zM12.5 8c-1.65 0-3 1.35-3 3a3.023 3.023 0 0 0 2.5 2.969V19h1v-5.031A3.025 3.025 0 0 0 15.5 11c0-1.65-1.35-3-3-3zm0 1c1.11 0 2 .89 2 2 0 1.11-.89 2-2 2-1.11 0-2-.89-2-2 0-1.11.89-2 2-2z"
        color="#000" font-family="Sans" font-weight="400" overflow="visible"></path>
</svg>